<mxfile host="Electron" agent="Mozilla/5.0 (X11; Linux x86_64) AppleWebKit/537.36 (KHTML, like Gecko) draw.io/26.1.1 Chrome/132.0.6834.210 Electron/34.3.3 Safari/537.36" version="26.1.1">
  <diagram name="Страница — 1" id="m3AQor8A2__3hMZNVlKB">
    <mxGraphModel dx="2796" dy="2150" grid="1" gridSize="10" guides="1" tooltips="1" connect="1" arrows="1" fold="1" page="1" pageScale="1" pageWidth="827" pageHeight="1169" math="0" shadow="0">
      <root>
        <mxCell id="0" />
        <mxCell id="1" parent="0" />
        <mxCell id="ge_bev2wtaYdpL3XGFj8-35" style="edgeStyle=orthogonalEdgeStyle;rounded=0;orthogonalLoop=1;jettySize=auto;html=1;exitX=0;exitY=0.5;exitDx=0;exitDy=0;" edge="1" parent="1" source="ge_bev2wtaYdpL3XGFj8-3" target="ge_bev2wtaYdpL3XGFj8-6">
          <mxGeometry relative="1" as="geometry" />
        </mxCell>
        <mxCell id="ge_bev2wtaYdpL3XGFj8-3" value="Определение характеристик" style="rounded=0;whiteSpace=wrap;html=1;" vertex="1" parent="1">
          <mxGeometry x="390" y="120" width="120" height="60" as="geometry" />
        </mxCell>
        <mxCell id="ge_bev2wtaYdpL3XGFj8-37" style="edgeStyle=orthogonalEdgeStyle;rounded=0;orthogonalLoop=1;jettySize=auto;html=1;exitX=0.5;exitY=1;exitDx=0;exitDy=0;entryX=0.5;entryY=0;entryDx=0;entryDy=0;" edge="1" parent="1" source="ge_bev2wtaYdpL3XGFj8-4" target="ge_bev2wtaYdpL3XGFj8-21">
          <mxGeometry relative="1" as="geometry" />
        </mxCell>
        <mxCell id="ge_bev2wtaYdpL3XGFj8-4" value="Модели NPC" style="rounded=0;whiteSpace=wrap;html=1;" vertex="1" parent="1">
          <mxGeometry x="130" y="260" width="120" height="60" as="geometry" />
        </mxCell>
        <mxCell id="ge_bev2wtaYdpL3XGFj8-17" style="edgeStyle=orthogonalEdgeStyle;rounded=0;orthogonalLoop=1;jettySize=auto;html=1;exitX=0;exitY=0.5;exitDx=0;exitDy=0;entryX=1;entryY=0.5;entryDx=0;entryDy=0;" edge="1" parent="1" source="ge_bev2wtaYdpL3XGFj8-5" target="ge_bev2wtaYdpL3XGFj8-16">
          <mxGeometry relative="1" as="geometry" />
        </mxCell>
        <mxCell id="ge_bev2wtaYdpL3XGFj8-22" style="edgeStyle=orthogonalEdgeStyle;rounded=0;orthogonalLoop=1;jettySize=auto;html=1;exitX=0.5;exitY=0;exitDx=0;exitDy=0;entryX=0.5;entryY=1;entryDx=0;entryDy=0;" edge="1" parent="1" source="ge_bev2wtaYdpL3XGFj8-5" target="ge_bev2wtaYdpL3XGFj8-6">
          <mxGeometry relative="1" as="geometry" />
        </mxCell>
        <mxCell id="ge_bev2wtaYdpL3XGFj8-5" value="готовая ONNX модель поведения" style="rounded=0;whiteSpace=wrap;html=1;" vertex="1" parent="1">
          <mxGeometry x="-130" y="230" width="120" height="60" as="geometry" />
        </mxCell>
        <mxCell id="ge_bev2wtaYdpL3XGFj8-36" style="edgeStyle=orthogonalEdgeStyle;rounded=0;orthogonalLoop=1;jettySize=auto;html=1;exitX=1;exitY=0.75;exitDx=0;exitDy=0;entryX=0.5;entryY=0;entryDx=0;entryDy=0;" edge="1" parent="1" source="ge_bev2wtaYdpL3XGFj8-6" target="ge_bev2wtaYdpL3XGFj8-4">
          <mxGeometry relative="1" as="geometry" />
        </mxCell>
        <mxCell id="ge_bev2wtaYdpL3XGFj8-40" style="edgeStyle=orthogonalEdgeStyle;rounded=0;orthogonalLoop=1;jettySize=auto;html=1;exitX=0.5;exitY=0;exitDx=0;exitDy=0;entryX=0.5;entryY=1;entryDx=0;entryDy=0;" edge="1" parent="1" source="ge_bev2wtaYdpL3XGFj8-6" target="ge_bev2wtaYdpL3XGFj8-38">
          <mxGeometry relative="1" as="geometry" />
        </mxCell>
        <mxCell id="ge_bev2wtaYdpL3XGFj8-44" style="edgeStyle=orthogonalEdgeStyle;rounded=0;orthogonalLoop=1;jettySize=auto;html=1;exitX=0;exitY=0.5;exitDx=0;exitDy=0;entryX=1;entryY=0.5;entryDx=0;entryDy=0;" edge="1" parent="1" source="ge_bev2wtaYdpL3XGFj8-6" target="ge_bev2wtaYdpL3XGFj8-43">
          <mxGeometry relative="1" as="geometry" />
        </mxCell>
        <mxCell id="ge_bev2wtaYdpL3XGFj8-6" value="Визуализация (2D - аватары, 3D модели героев)" style="rounded=0;whiteSpace=wrap;html=1;" vertex="1" parent="1">
          <mxGeometry x="-130" y="120" width="120" height="60" as="geometry" />
        </mxCell>
        <mxCell id="ge_bev2wtaYdpL3XGFj8-34" style="edgeStyle=orthogonalEdgeStyle;rounded=0;orthogonalLoop=1;jettySize=auto;html=1;exitX=1;exitY=0.5;exitDx=0;exitDy=0;entryX=0.5;entryY=0;entryDx=0;entryDy=0;" edge="1" parent="1" source="ge_bev2wtaYdpL3XGFj8-7" target="ge_bev2wtaYdpL3XGFj8-3">
          <mxGeometry relative="1" as="geometry" />
        </mxCell>
        <mxCell id="ge_bev2wtaYdpL3XGFj8-7" value="Введеный промт&lt;br&gt;(зхарактеристика введеная пользоваткелем)" style="rounded=0;whiteSpace=wrap;html=1;" vertex="1" parent="1">
          <mxGeometry x="130" y="10" width="120" height="60" as="geometry" />
        </mxCell>
        <mxCell id="ge_bev2wtaYdpL3XGFj8-13" style="edgeStyle=orthogonalEdgeStyle;rounded=0;orthogonalLoop=1;jettySize=auto;html=1;exitX=0.5;exitY=1;exitDx=0;exitDy=0;entryX=0.5;entryY=0;entryDx=0;entryDy=0;" edge="1" parent="1" source="ge_bev2wtaYdpL3XGFj8-8" target="ge_bev2wtaYdpL3XGFj8-7">
          <mxGeometry relative="1" as="geometry" />
        </mxCell>
        <mxCell id="ge_bev2wtaYdpL3XGFj8-8" value="Игрок (пользователь)&amp;nbsp;" style="rounded=0;whiteSpace=wrap;html=1;" vertex="1" parent="1">
          <mxGeometry x="130" y="-80" width="120" height="60" as="geometry" />
        </mxCell>
        <mxCell id="ge_bev2wtaYdpL3XGFj8-12" style="edgeStyle=orthogonalEdgeStyle;rounded=0;orthogonalLoop=1;jettySize=auto;html=1;exitX=0.5;exitY=0;exitDx=0;exitDy=0;entryX=0.5;entryY=1;entryDx=0;entryDy=0;" edge="1" parent="1" source="ge_bev2wtaYdpL3XGFj8-10" target="ge_bev2wtaYdpL3XGFj8-11">
          <mxGeometry relative="1" as="geometry" />
        </mxCell>
        <mxCell id="ge_bev2wtaYdpL3XGFj8-10" value="Разработчик" style="rounded=0;whiteSpace=wrap;html=1;" vertex="1" parent="1">
          <mxGeometry x="-130" y="555" width="120" height="60" as="geometry" />
        </mxCell>
        <mxCell id="ge_bev2wtaYdpL3XGFj8-18" style="edgeStyle=orthogonalEdgeStyle;rounded=0;orthogonalLoop=1;jettySize=auto;html=1;exitX=0.5;exitY=0;exitDx=0;exitDy=0;entryX=0.5;entryY=1;entryDx=0;entryDy=0;" edge="1" parent="1" source="ge_bev2wtaYdpL3XGFj8-11" target="ge_bev2wtaYdpL3XGFj8-15">
          <mxGeometry relative="1" as="geometry" />
        </mxCell>
        <mxCell id="ge_bev2wtaYdpL3XGFj8-19" style="edgeStyle=orthogonalEdgeStyle;rounded=0;orthogonalLoop=1;jettySize=auto;html=1;exitX=1;exitY=0.5;exitDx=0;exitDy=0;entryX=0;entryY=0.5;entryDx=0;entryDy=0;" edge="1" parent="1" source="ge_bev2wtaYdpL3XGFj8-11" target="ge_bev2wtaYdpL3XGFj8-14">
          <mxGeometry relative="1" as="geometry" />
        </mxCell>
        <mxCell id="ge_bev2wtaYdpL3XGFj8-30" style="edgeStyle=orthogonalEdgeStyle;rounded=0;orthogonalLoop=1;jettySize=auto;html=1;exitX=0;exitY=0.5;exitDx=0;exitDy=0;entryX=1;entryY=0.5;entryDx=0;entryDy=0;" edge="1" parent="1" source="ge_bev2wtaYdpL3XGFj8-11" target="ge_bev2wtaYdpL3XGFj8-29">
          <mxGeometry relative="1" as="geometry" />
        </mxCell>
        <mxCell id="ge_bev2wtaYdpL3XGFj8-11" value="Промт (характеристика для генерации игрового мира|)" style="rounded=0;whiteSpace=wrap;html=1;" vertex="1" parent="1">
          <mxGeometry x="-130" y="450" width="120" height="60" as="geometry" />
        </mxCell>
        <mxCell id="ge_bev2wtaYdpL3XGFj8-25" style="edgeStyle=orthogonalEdgeStyle;rounded=0;orthogonalLoop=1;jettySize=auto;html=1;exitX=0.5;exitY=1;exitDx=0;exitDy=0;entryX=0.5;entryY=0;entryDx=0;entryDy=0;" edge="1" parent="1" source="ge_bev2wtaYdpL3XGFj8-14" target="ge_bev2wtaYdpL3XGFj8-24">
          <mxGeometry relative="1" as="geometry" />
        </mxCell>
        <mxCell id="ge_bev2wtaYdpL3XGFj8-26" style="edgeStyle=orthogonalEdgeStyle;rounded=0;orthogonalLoop=1;jettySize=auto;html=1;exitX=1;exitY=0.5;exitDx=0;exitDy=0;entryX=0;entryY=0.5;entryDx=0;entryDy=0;" edge="1" parent="1" source="ge_bev2wtaYdpL3XGFj8-14" target="ge_bev2wtaYdpL3XGFj8-20">
          <mxGeometry relative="1" as="geometry" />
        </mxCell>
        <mxCell id="ge_bev2wtaYdpL3XGFj8-14" value="Генерация квестов" style="rounded=0;whiteSpace=wrap;html=1;" vertex="1" parent="1">
          <mxGeometry x="50" y="450" width="120" height="60" as="geometry" />
        </mxCell>
        <mxCell id="ge_bev2wtaYdpL3XGFj8-23" style="edgeStyle=orthogonalEdgeStyle;rounded=0;orthogonalLoop=1;jettySize=auto;html=1;exitX=0.5;exitY=0;exitDx=0;exitDy=0;entryX=0.5;entryY=1;entryDx=0;entryDy=0;" edge="1" parent="1" source="ge_bev2wtaYdpL3XGFj8-15" target="ge_bev2wtaYdpL3XGFj8-5">
          <mxGeometry relative="1" as="geometry" />
        </mxCell>
        <mxCell id="ge_bev2wtaYdpL3XGFj8-15" value="Обучение модели поведения NPC" style="rounded=0;whiteSpace=wrap;html=1;" vertex="1" parent="1">
          <mxGeometry x="-130" y="350" width="120" height="60" as="geometry" />
        </mxCell>
        <mxCell id="ge_bev2wtaYdpL3XGFj8-16" value="LM-Agents" style="rounded=0;whiteSpace=wrap;html=1;fillColor=#97D077;" vertex="1" parent="1">
          <mxGeometry x="-290" y="230" width="120" height="60" as="geometry" />
        </mxCell>
        <mxCell id="ge_bev2wtaYdpL3XGFj8-27" style="edgeStyle=orthogonalEdgeStyle;rounded=0;orthogonalLoop=1;jettySize=auto;html=1;exitX=1;exitY=0.5;exitDx=0;exitDy=0;entryX=0;entryY=0.5;entryDx=0;entryDy=0;" edge="1" parent="1" source="ge_bev2wtaYdpL3XGFj8-20" target="ge_bev2wtaYdpL3XGFj8-21">
          <mxGeometry relative="1" as="geometry" />
        </mxCell>
        <mxCell id="ge_bev2wtaYdpL3XGFj8-20" value="Текст, квест" style="rounded=0;whiteSpace=wrap;html=1;" vertex="1" parent="1">
          <mxGeometry x="230" y="450" width="120" height="60" as="geometry" />
        </mxCell>
        <mxCell id="ge_bev2wtaYdpL3XGFj8-85" style="edgeStyle=orthogonalEdgeStyle;rounded=0;orthogonalLoop=1;jettySize=auto;html=1;exitX=1;exitY=0.5;exitDx=0;exitDy=0;entryX=0;entryY=0.5;entryDx=0;entryDy=0;" edge="1" parent="1" source="ge_bev2wtaYdpL3XGFj8-21" target="ge_bev2wtaYdpL3XGFj8-84">
          <mxGeometry relative="1" as="geometry" />
        </mxCell>
        <mxCell id="ge_bev2wtaYdpL3XGFj8-21" value="Тестирование прототипа" style="rounded=0;whiteSpace=wrap;html=1;" vertex="1" parent="1">
          <mxGeometry x="413.5" y="450" width="120" height="60" as="geometry" />
        </mxCell>
        <mxCell id="ge_bev2wtaYdpL3XGFj8-24" value="LLM-Unity" style="rounded=0;whiteSpace=wrap;html=1;fillColor=#97D077;" vertex="1" parent="1">
          <mxGeometry x="50" y="550" width="120" height="60" as="geometry" />
        </mxCell>
        <mxCell id="ge_bev2wtaYdpL3XGFj8-42" style="edgeStyle=orthogonalEdgeStyle;rounded=0;orthogonalLoop=1;jettySize=auto;html=1;exitX=0;exitY=0.5;exitDx=0;exitDy=0;entryX=1;entryY=0.5;entryDx=0;entryDy=0;" edge="1" parent="1" source="ge_bev2wtaYdpL3XGFj8-29" target="ge_bev2wtaYdpL3XGFj8-41">
          <mxGeometry relative="1" as="geometry" />
        </mxCell>
        <mxCell id="ge_bev2wtaYdpL3XGFj8-29" value="Генерация игровой локации" style="rounded=0;whiteSpace=wrap;html=1;" vertex="1" parent="1">
          <mxGeometry x="-310" y="450" width="120" height="60" as="geometry" />
        </mxCell>
        <mxCell id="ge_bev2wtaYdpL3XGFj8-38" value="Meshy/Tripo AI" style="rounded=0;whiteSpace=wrap;html=1;fillColor=#97D077;" vertex="1" parent="1">
          <mxGeometry x="-130" y="10" width="120" height="60" as="geometry" />
        </mxCell>
        <mxCell id="ge_bev2wtaYdpL3XGFj8-41" value="Map Magic 2/TRN" style="rounded=0;whiteSpace=wrap;html=1;fillColor=#97D077;" vertex="1" parent="1">
          <mxGeometry x="-480" y="450" width="120" height="60" as="geometry" />
        </mxCell>
        <mxCell id="ge_bev2wtaYdpL3XGFj8-43" value="NIght Cafe" style="rounded=0;whiteSpace=wrap;html=1;fillColor=#97D077;" vertex="1" parent="1">
          <mxGeometry x="-290" y="120" width="120" height="60" as="geometry" />
        </mxCell>
        <mxCell id="ge_bev2wtaYdpL3XGFj8-45" value="LLM-Unity" style="rounded=0;whiteSpace=wrap;html=1;fillColor=#97D077;" vertex="1" parent="1">
          <mxGeometry x="70" y="930" width="120" height="60" as="geometry" />
        </mxCell>
        <mxCell id="ge_bev2wtaYdpL3XGFj8-46" value="Map Magic 2/TRN" style="rounded=0;whiteSpace=wrap;html=1;fillColor=#97D077;" vertex="1" parent="1">
          <mxGeometry x="-120" y="930" width="120" height="60" as="geometry" />
        </mxCell>
        <mxCell id="ge_bev2wtaYdpL3XGFj8-47" value="LM-Agents" style="rounded=0;whiteSpace=wrap;html=1;fillColor=#97D077;" vertex="1" parent="1">
          <mxGeometry x="-340" y="930" width="120" height="60" as="geometry" />
        </mxCell>
        <mxCell id="ge_bev2wtaYdpL3XGFj8-48" value="NIght Cafe" style="rounded=0;whiteSpace=wrap;html=1;fillColor=#97D077;" vertex="1" parent="1">
          <mxGeometry x="270" y="930" width="120" height="60" as="geometry" />
        </mxCell>
        <mxCell id="ge_bev2wtaYdpL3XGFj8-49" value="Meshy/Tripo AI" style="rounded=0;whiteSpace=wrap;html=1;fillColor=#97D077;" vertex="1" parent="1">
          <mxGeometry x="-520" y="930" width="120" height="60" as="geometry" />
        </mxCell>
        <mxCell id="ge_bev2wtaYdpL3XGFj8-50" value="готовая ONNX модель поведения" style="rounded=0;whiteSpace=wrap;html=1;" vertex="1" parent="1">
          <mxGeometry x="-340" y="1020" width="120" height="60" as="geometry" />
        </mxCell>
        <mxCell id="ge_bev2wtaYdpL3XGFj8-51" value="Генерация квестов" style="rounded=0;whiteSpace=wrap;html=1;" vertex="1" parent="1">
          <mxGeometry x="70" y="1020" width="120" height="60" as="geometry" />
        </mxCell>
        <mxCell id="ge_bev2wtaYdpL3XGFj8-52" value="2D Аватары героев" style="rounded=0;whiteSpace=wrap;html=1;" vertex="1" parent="1">
          <mxGeometry x="270" y="1020" width="120" height="60" as="geometry" />
        </mxCell>
        <mxCell id="ge_bev2wtaYdpL3XGFj8-53" value="Генерация игровой локации" style="rounded=0;whiteSpace=wrap;html=1;" vertex="1" parent="1">
          <mxGeometry x="-120" y="1020" width="120" height="60" as="geometry" />
        </mxCell>
        <mxCell id="ge_bev2wtaYdpL3XGFj8-54" value="3D Модели" style="rounded=0;whiteSpace=wrap;html=1;" vertex="1" parent="1">
          <mxGeometry x="-520" y="1020" width="120" height="60" as="geometry" />
        </mxCell>
        <mxCell id="ge_bev2wtaYdpL3XGFj8-55" value="Игрок (пользователь)&amp;nbsp;" style="rounded=0;whiteSpace=wrap;html=1;" vertex="1" parent="1">
          <mxGeometry x="-240" y="770" width="120" height="60" as="geometry" />
        </mxCell>
        <mxCell id="ge_bev2wtaYdpL3XGFj8-56" value="Разработчик" style="rounded=0;whiteSpace=wrap;html=1;" vertex="1" parent="1">
          <mxGeometry x="-10" y="770" width="120" height="60" as="geometry" />
        </mxCell>
        <mxCell id="ge_bev2wtaYdpL3XGFj8-57" value="" style="endArrow=none;html=1;rounded=0;" edge="1" parent="1">
          <mxGeometry width="50" height="50" relative="1" as="geometry">
            <mxPoint x="-470" y="890" as="sourcePoint" />
            <mxPoint x="350" y="890" as="targetPoint" />
          </mxGeometry>
        </mxCell>
        <mxCell id="ge_bev2wtaYdpL3XGFj8-59" value="" style="endArrow=none;html=1;rounded=0;" edge="1" parent="1">
          <mxGeometry width="50" height="50" relative="1" as="geometry">
            <mxPoint x="-180.71" y="890" as="sourcePoint" />
            <mxPoint x="-180.71" y="830" as="targetPoint" />
          </mxGeometry>
        </mxCell>
        <mxCell id="ge_bev2wtaYdpL3XGFj8-60" value="" style="endArrow=none;html=1;rounded=0;" edge="1" parent="1">
          <mxGeometry width="50" height="50" relative="1" as="geometry">
            <mxPoint x="50" y="890" as="sourcePoint" />
            <mxPoint x="50" y="830" as="targetPoint" />
          </mxGeometry>
        </mxCell>
        <mxCell id="ge_bev2wtaYdpL3XGFj8-61" value="" style="endArrow=none;html=1;rounded=0;" edge="1" parent="1">
          <mxGeometry width="50" height="50" relative="1" as="geometry">
            <mxPoint x="-280.71" y="930" as="sourcePoint" />
            <mxPoint x="-280.71" y="890" as="targetPoint" />
          </mxGeometry>
        </mxCell>
        <mxCell id="ge_bev2wtaYdpL3XGFj8-62" value="" style="endArrow=none;html=1;rounded=0;" edge="1" parent="1">
          <mxGeometry width="50" height="50" relative="1" as="geometry">
            <mxPoint x="-470" y="930" as="sourcePoint" />
            <mxPoint x="-470" y="890" as="targetPoint" />
          </mxGeometry>
        </mxCell>
        <mxCell id="ge_bev2wtaYdpL3XGFj8-63" value="" style="endArrow=none;html=1;rounded=0;" edge="1" parent="1">
          <mxGeometry width="50" height="50" relative="1" as="geometry">
            <mxPoint x="-60.70999999999998" y="930" as="sourcePoint" />
            <mxPoint x="-60.70999999999998" y="890" as="targetPoint" />
          </mxGeometry>
        </mxCell>
        <mxCell id="ge_bev2wtaYdpL3XGFj8-64" value="" style="endArrow=none;html=1;rounded=0;" edge="1" parent="1">
          <mxGeometry width="50" height="50" relative="1" as="geometry">
            <mxPoint x="130" y="930" as="sourcePoint" />
            <mxPoint x="130" y="890" as="targetPoint" />
          </mxGeometry>
        </mxCell>
        <mxCell id="ge_bev2wtaYdpL3XGFj8-65" value="" style="endArrow=none;html=1;rounded=0;" edge="1" parent="1">
          <mxGeometry width="50" height="50" relative="1" as="geometry">
            <mxPoint x="350.00000000000006" y="930" as="sourcePoint" />
            <mxPoint x="350.00000000000006" y="890" as="targetPoint" />
          </mxGeometry>
        </mxCell>
        <mxCell id="ge_bev2wtaYdpL3XGFj8-66" value="" style="endArrow=none;html=1;rounded=0;" edge="1" parent="1">
          <mxGeometry width="50" height="50" relative="1" as="geometry">
            <mxPoint x="-470" y="1020" as="sourcePoint" />
            <mxPoint x="-470" y="990" as="targetPoint" />
          </mxGeometry>
        </mxCell>
        <mxCell id="ge_bev2wtaYdpL3XGFj8-67" value="Тестирование прототипа" style="rounded=0;whiteSpace=wrap;html=1;" vertex="1" parent="1">
          <mxGeometry x="-120" y="1280" width="120" height="60" as="geometry" />
        </mxCell>
        <mxCell id="ge_bev2wtaYdpL3XGFj8-68" value="" style="endArrow=none;html=1;rounded=0;" edge="1" parent="1">
          <mxGeometry width="50" height="50" relative="1" as="geometry">
            <mxPoint x="-470" y="1120" as="sourcePoint" />
            <mxPoint x="350" y="1120" as="targetPoint" />
          </mxGeometry>
        </mxCell>
        <mxCell id="ge_bev2wtaYdpL3XGFj8-69" value="" style="endArrow=none;html=1;rounded=0;" edge="1" parent="1">
          <mxGeometry width="50" height="50" relative="1" as="geometry">
            <mxPoint x="-470" y="1120" as="sourcePoint" />
            <mxPoint x="-470" y="1080" as="targetPoint" />
          </mxGeometry>
        </mxCell>
        <mxCell id="ge_bev2wtaYdpL3XGFj8-70" value="" style="endArrow=none;html=1;rounded=0;" edge="1" parent="1">
          <mxGeometry width="50" height="50" relative="1" as="geometry">
            <mxPoint x="350" y="1120" as="sourcePoint" />
            <mxPoint x="350" y="1080" as="targetPoint" />
          </mxGeometry>
        </mxCell>
        <mxCell id="ge_bev2wtaYdpL3XGFj8-71" value="" style="endArrow=none;html=1;rounded=0;" edge="1" parent="1">
          <mxGeometry width="50" height="50" relative="1" as="geometry">
            <mxPoint x="-280.71" y="1120" as="sourcePoint" />
            <mxPoint x="-280.71" y="1080" as="targetPoint" />
          </mxGeometry>
        </mxCell>
        <mxCell id="ge_bev2wtaYdpL3XGFj8-72" value="" style="endArrow=none;html=1;rounded=0;" edge="1" parent="1">
          <mxGeometry width="50" height="50" relative="1" as="geometry">
            <mxPoint x="-60.70999999999998" y="1120" as="sourcePoint" />
            <mxPoint x="-60.70999999999998" y="1080" as="targetPoint" />
          </mxGeometry>
        </mxCell>
        <mxCell id="ge_bev2wtaYdpL3XGFj8-73" value="" style="endArrow=none;html=1;rounded=0;" edge="1" parent="1">
          <mxGeometry width="50" height="50" relative="1" as="geometry">
            <mxPoint x="130" y="1120" as="sourcePoint" />
            <mxPoint x="130" y="1080" as="targetPoint" />
          </mxGeometry>
        </mxCell>
        <mxCell id="ge_bev2wtaYdpL3XGFj8-77" value="" style="endArrow=none;html=1;rounded=0;" edge="1" parent="1">
          <mxGeometry width="50" height="50" relative="1" as="geometry">
            <mxPoint x="-280.71000000000004" y="1020" as="sourcePoint" />
            <mxPoint x="-280.71000000000004" y="990" as="targetPoint" />
          </mxGeometry>
        </mxCell>
        <mxCell id="ge_bev2wtaYdpL3XGFj8-78" value="" style="endArrow=none;html=1;rounded=0;" edge="1" parent="1">
          <mxGeometry width="50" height="50" relative="1" as="geometry">
            <mxPoint x="-60.70999999999998" y="1020" as="sourcePoint" />
            <mxPoint x="-60.70999999999998" y="990" as="targetPoint" />
          </mxGeometry>
        </mxCell>
        <mxCell id="ge_bev2wtaYdpL3XGFj8-79" value="" style="endArrow=none;html=1;rounded=0;" edge="1" parent="1">
          <mxGeometry width="50" height="50" relative="1" as="geometry">
            <mxPoint x="128.57000000000005" y="1020" as="sourcePoint" />
            <mxPoint x="128.57000000000005" y="990" as="targetPoint" />
          </mxGeometry>
        </mxCell>
        <mxCell id="ge_bev2wtaYdpL3XGFj8-80" value="" style="endArrow=none;html=1;rounded=0;" edge="1" parent="1">
          <mxGeometry width="50" height="50" relative="1" as="geometry">
            <mxPoint x="350" y="1020" as="sourcePoint" />
            <mxPoint x="350" y="990" as="targetPoint" />
          </mxGeometry>
        </mxCell>
        <mxCell id="ge_bev2wtaYdpL3XGFj8-81" value="" style="endArrow=none;html=1;rounded=0;" edge="1" parent="1">
          <mxGeometry width="50" height="50" relative="1" as="geometry">
            <mxPoint x="-60.709999999999994" y="1180" as="sourcePoint" />
            <mxPoint x="-60.709999999999994" y="1120" as="targetPoint" />
          </mxGeometry>
        </mxCell>
        <mxCell id="ge_bev2wtaYdpL3XGFj8-82" value="Unity Play Mode" style="rounded=1;whiteSpace=wrap;html=1;fillColor=#97D077;" vertex="1" parent="1">
          <mxGeometry x="-125" y="1180" width="130" height="40" as="geometry" />
        </mxCell>
        <mxCell id="ge_bev2wtaYdpL3XGFj8-83" value="" style="endArrow=none;html=1;rounded=0;" edge="1" parent="1">
          <mxGeometry width="50" height="50" relative="1" as="geometry">
            <mxPoint x="-60.709999999999994" y="1280" as="sourcePoint" />
            <mxPoint x="-60.709999999999994" y="1220" as="targetPoint" />
          </mxGeometry>
        </mxCell>
        <mxCell id="ge_bev2wtaYdpL3XGFj8-84" value="Unity Play Mode" style="rounded=1;whiteSpace=wrap;html=1;fillColor=#97D077;" vertex="1" parent="1">
          <mxGeometry x="580" y="460" width="130" height="40" as="geometry" />
        </mxCell>
      </root>
    </mxGraphModel>
  </diagram>
</mxfile>
